<?xml version="1.0" ?>
<svg width="400" height="400" xmlns="http://www.w3.org/2000/svg">
<rect width="100%" height="100%" fill="white"/>
<path d="M200,200 L200,50 A150,150 0 0,1 350,200 z" fill="#e7e0dd" transform="rotate(0.000000, 200, 200)"/>
<path d="M200,200 L200,50 A150,150 0 0,1 350,200 z" fill="#fed181" transform="rotate(21.176470, 200, 200)"/>
<path d="M200,200 L200,50 A150,150 0 0,1 350,200 z" fill="#eddacd" transform="rotate(42.352940, 200, 200)"/>
<path d="M200,200 L200,50 A150,150 0 0,1 350,200 z" fill="#b02e03" transform="rotate(63.529411, 200, 200)"/>
<path d="M200,200 L200,50 A150,150 0 0,1 350,200 z" fill="#f7e3dc" transform="rotate(84.705879, 200, 200)"/>
<path d="M200,200 L200,50 A150,150 0 0,1 350,200 z" fill="#a82c07" transform="rotate(105.882347, 200, 200)"/>
<path d="M200,200 L200,50 A150,150 0 0,1 350,200 z" fill="#443735" transform="rotate(127.058823, 200, 200)"/>
<path d="M200,200 L200,50 A150,150 0 0,1 350,200 z" fill="#f1e6dc" transform="rotate(148.235291, 200, 200)"/>
<path d="M200,200 L200,50 A150,150 0 0,1 350,200 z" fill="#ad2c01" transform="rotate(169.411758, 200, 200)"/>
<path d="M200,200 L200,50 A150,150 0 0,1 350,200 z" fill="#473a38" transform="rotate(190.588226, 200, 200)"/>
<path d="M200,200 L200,50 A150,150 0 0,1 350,200 z" fill="#433634" transform="rotate(211.764694, 200, 200)"/>
<path d="M200,200 L200,50 A150,150 0 0,1 350,200 z" fill="#423533" transform="rotate(232.941162, 200, 200)"/>
<path d="M200,200 L200,50 A150,150 0 0,1 350,200 z" fill="#463937" transform="rotate(254.117645, 200, 200)"/>
<path d="M200,200 L200,50 A150,150 0 0,1 350,200 z" fill="#e28b3b" transform="rotate(275.294098, 200, 200)"/>
<path d="M200,200 L200,50 A150,150 0 0,1 350,200 z" fill="#453836" transform="rotate(296.470581, 200, 200)"/>
<path d="M200,200 L200,50 A150,150 0 0,1 350,200 z" fill="#473a39" transform="rotate(317.647034, 200, 200)"/>
<path d="M200,200 L200,50 A150,150 0 0,1 350,200 z" fill="#3f3230" transform="rotate(338.823517, 200, 200)"/>
</svg>
