<?xml version="1.0" encoding="UTF-8" standalone="no"?>
<svg width="400" height="400" xmlns="http://www.w3.org/2000/svg">
  <rect width="100%" height="100%" fill="#ffffff" />
  <path d="M200.00,50.00 A150.00,150.00 0 0,1 288.17,78.65 L200.00,200.00 Z" fill="#fed1b0" />
  <path d="M288.17,78.65 A150.00,150.00 0 0,1 342.66,153.65 L200.00,200.00 Z" fill="#eddaa8" />
  <path d="M342.66,153.65 A150.00,150.00 0 0,1 342.66,246.35 L200.00,200.00 Z" fill="#f7e3d4" />
  <path d="M342.66,246.35 A150.00,150.00 0 0,1 288.17,321.35 L200.00,200.00 Z" fill="#fed290" />
  <path d="M288.17,321.35 A150.00,150.00 0 0,1 200.00,350.00 L200.00,200.00 Z" fill="#fed0ae" />
  <path d="M200.00,350.00 A150.00,150.00 0 0,1 111.83,321.35 L200.00,200.00 Z" fill="#e7e0cf" />
  <path d="M111.83,321.35 A150.00,150.00 0 0,1 57.34,246.35 L200.00,200.00 Z" fill="#f1e6dd" />
  <path d="M57.34,246.35 A150.00,150.00 0 0,1 57.34,153.65 L200.00,200.00 Z" fill="#f4e7e5" />
  <path d="M57.34,153.65 A150.00,150.00 0 0,1 111.83,78.65 L200.00,200.00 Z" fill="#fed38e" />
  <path d="M111.83,78.65 A150.00,150.00 0 0,1 200.00,50.00 L200.00,200.00 Z" fill="#f1deef" />
</svg>
