<?xml version="1.0" ?>
<svg width="400" height="400" xmlns="http://www.w3.org/2000/svg">
<rect width="100%" height="100%" fill="white"/>
<path d="M200,200 L200,50 A150,150 0 0,1 350,200 z" fill="#e7e0dd" transform="rotate(0.000000, 200, 200)"/>
<path d="M200,200 L200,50 A150,150 0 0,1 350,200 z" fill="#fed181" transform="rotate(45.000000, 200, 200)"/>
<path d="M200,200 L200,50 A150,150 0 0,1 350,200 z" fill="#eddacd" transform="rotate(90.000000, 200, 200)"/>
<path d="M200,200 L200,50 A150,150 0 0,1 350,200 z" fill="#b02e03" transform="rotate(135.000000, 200, 200)"/>
<path d="M200,200 L200,50 A150,150 0 0,1 350,200 z" fill="#f7e3dc" transform="rotate(180.000000, 200, 200)"/>
<path d="M200,200 L200,50 A150,150 0 0,1 350,200 z" fill="#a82c07" transform="rotate(225.000000, 200, 200)"/>
<path d="M200,200 L200,50 A150,150 0 0,1 350,200 z" fill="#443735" transform="rotate(270.000000, 200, 200)"/>
<path d="M200,200 L200,50 A150,150 0 0,1 350,200 z" fill="#f1e6dc" transform="rotate(315.000000, 200, 200)"/>
</svg>
